<?xml version="1.0" encoding="UTF-8" standalone="no"?>
<!-- Created with Inkscape (http://www.inkscape.org/) -->

<svg
   xmlns:dc="http://purl.org/dc/elements/1.1/"
   xmlns:cc="http://creativecommons.org/ns#"
   xmlns:rdf="http://www.w3.org/1999/02/22-rdf-syntax-ns#"
   xmlns:svg="http://www.w3.org/2000/svg"
   xmlns="http://www.w3.org/2000/svg"
   xmlns:sodipodi="http://sodipodi.sourceforge.net/DTD/sodipodi-0.dtd"
   xmlns:inkscape="http://www.inkscape.org/namespaces/inkscape"
   version="1.1"
   id="svg2"
   xml:space="preserve"
   width="817.74664"
   height="1146.24"
   viewBox="0 0 817.74664 1146.24"
   sodipodi:docname="resume1.svg"
   inkscape:version="0.92.5 (2060ec1f9f, 2020-04-08)"><metadata
     id="metadata8"><rdf:RDF><cc:Work
         rdf:about=""><dc:format>image/svg+xml</dc:format><dc:type
           rdf:resource="http://purl.org/dc/dcmitype/StillImage" /><dc:title></dc:title></cc:Work></rdf:RDF></metadata><defs
     id="defs6" /><sodipodi:namedview
     pagecolor="#ffffff"
     bordercolor="#666666"
     borderopacity="1"
     objecttolerance="10"
     gridtolerance="10"
     guidetolerance="10"
     inkscape:pageopacity="0"
     inkscape:pageshadow="2"
     inkscape:window-width="1848"
     inkscape:window-height="1016"
     id="namedview4"
     showgrid="false"
     inkscape:snap-text-baseline="true"
     inkscape:snap-others="true"
     inkscape:zoom="0.731086"
     inkscape:cx="368.52239"
     inkscape:cy="573.11998"
     inkscape:window-x="72"
     inkscape:window-y="27"
     inkscape:window-maximized="1"
     inkscape:current-layer="g10" /><g
     id="g10"
     inkscape:groupmode="layer"
     inkscape:label="ink_ext_XXXXXX"
     transform="matrix(1.3333333,0,0,-1.3333333,0,1146.24)"><g
       id="g12"
       transform="scale(0.1)"
       inkscape:export-xdpi="96"
       inkscape:export-ydpi="96"><path
         d="M 0,8596.8 V 0 H 6133.1 V 8596.8 H 0"
         style="fill:#ffffff;fill-opacity:1;fill-rule:nonzero;stroke:none"
         id="path14"
         inkscape:connector-curvature="0" /><path
         d="M 2096.24,8356.8 H 227.949 v 240 H 2096.24 v -240"
         style="fill:#f57c14;fill-opacity:1;fill-rule:evenodd;stroke:none"
         id="path22"
         inkscape:connector-curvature="0" /><g
         id="g24"
         transform="scale(10)"><text
           transform="matrix(0.998071,0,0,-1,234.016,744.212)"
           style="font-variant:normal;font-weight:normal;font-size:14px;font-family:OpenSans;-inkscape-font-specification:OpenSans;writing-mode:lr-tb;fill:#f57c14;fill-opacity:1;fill-rule:nonzero;stroke:none"
           id="text28"><tspan
             x="0 8.831872 14.543872 22.397871 30.188305 35.130306 38.671303 45.685303 53.539818 57.176708 67.382706 70.923706 76.63884 84.493355 91.158058 96.1007 104.55669"
             y="0"
             sodipodi:role="line"
             id="tspan26">Creative Director</tspan></text>
</g><g
         id="g30"
         transform="scale(10)"><text
           transform="matrix(0.9998,0,0,-1,350.885,448.687)"
           style="font-variant:normal;font-weight:normal;font-size:8.50133991px;font-family:Lato;-inkscape-font-specification:Lato-Regular;writing-mode:lr-tb;fill:#706d6e;fill-opacity:1;fill-rule:nonzero;stroke:none"
           id="text38"><tspan
             x="0 5.1008039 9.9210634 13.015552 20.921797 23.965277 28.785538 31.880026 34.05637 38.281532 45.269634 49.758343 52.801823 54.978165 61.966267 66.191437 69.872513 73.553596 77.778763 79.955101 86.416122 91.236382 95.980125 100.46883 102.64518 106.70032 111.49613 116.31639 119.41088 127.31713 130.36061 135.18086 138.27536 140.45171 145.21245 150.03271 152.03903 156.85928 159.96169 162.13803 166.62674 169.67422 171.85056 176.59431 178.63463 182.3157 184.32202 186.49837 193.49097 198.31122 200.31754 204.80624 208.48734 213.72415 218.21286"
             y="0"
             sodipodi:role="line"
             id="tspan32">Portor amet massa Done cportor dolor et nisl molese </tspan><tspan
             x="0 2.0403216 6.7795482 13.771679 15.948022 18.927618 23.416325 25.422642 27.462963 31.144043 35.203457 40.023716 44.767464 46.943806 48.950123 53.770382 56.864872 61.353577 65.706261 67.746582 72.511681 76.192764 80.932014 87.924118 90.100464 94.861214 99.681473 101.68779 106.50805 109.60254 111.77888 117.62331 120.7178 122.75812 127.50187 131.92256 133.96289 135.96921 137.97551 142.20068 144.207 146.38335 148.38966 153.20992 156.30441 160.79311 167.78571 169.96205 171.96837 176.78862 179.88312 184.37183 191.36441 193.54076 195.58109 200.34569 204.02676 208.76602 215.75862 217.76494"
             y="12.0012"
             sodipodi:role="line"
             id="tspan34">ium feliscon lore ipsum dolor ringilla. lorem lorem ipsum. </tspan><tspan
             x="0 4.8202596 6.8265762 8.8328924 12.888031 14.931893 17.979378 22.718605 27.479355 29.519676 34.263424 36.439766 40.928474 44.609554 47.65704 49.833382 54.594131 59.414394 61.420708 66.240967 69.335457 71.511803 76.748627 83.74073 88.229439 90.235756 92.412102 98.877319 103.69758 108.44132 112.93003 115.10638 119.16576 123.93086 128.75111 131.84561 139.75586 142.80334 147.6236 150.71809"
             y="24.002399"
             sodipodi:role="line"
             id="tspan36">ollcitudin est dolor me. Done cportor </tspan></text>
</g><g
         id="g40"
         transform="scale(10)"><text
           transform="matrix(0.99807,0,0,-1,350.025,474.284)"
           style="font-variant:normal;font-weight:bold;font-size:9px;font-family:OpenSans;-inkscape-font-specification:OpenSans-Bold;writing-mode:lr-tb;fill:#5a5758;fill-opacity:1;fill-rule:nonzero;stroke:none"
           id="text44"><tspan
             x="0 6.6599998 11.7 17.549999 19.889999 25.625202 31.566351 36.60635 42.816353 48.028061 51.007061 56.856228 61.896229 64.234222 69.191071 76.354286 81.439285 88.241966 93.453697 96.433578 103.59631 110.91331"
             y="0"
             sodipodi:role="line"
             id="tspan42">DEV CREATIVE SOLUTIONS</tspan></text>
</g><g
         id="g46"
         transform="scale(10)"><text
           transform="matrix(0.99608,0,0,-1,234.634,447.25)"
           style="font-variant:normal;font-weight:normal;font-size:8.97976971px;font-family:Lato;-inkscape-font-specification:Lato-Regular;writing-mode:lr-tb;fill:#656263;fill-opacity:1;fill-rule:nonzero;stroke:none"
           id="text50"><tspan
             x="0 5.656949 11.314388 16.971336 22.628286 25.376352 29.161213 31.908789 37.566227 43.223179 48.88015"
             y="0"
             sodipodi:role="line"
             id="tspan48">2010 - 2013</tspan></text>
</g><g
         id="g52"
         transform="scale(10)"><text
           transform="matrix(0.99807,0,0,-1,234.016,474.284)"
           style="font-variant:normal;font-weight:bold;font-size:9px;font-family:OpenSans;-inkscape-font-specification:OpenSans-Bold;writing-mode:lr-tb;fill:#393536;fill-opacity:1;fill-rule:nonzero;stroke:none"
           id="text56"><tspan
             x="0 5.085 10.125 16.334999 22.995001 25.334999 34.035969 39.07597 45.123283 47.460815 54.123089 59.16309 64.119911 67.099792 73.616745 80.933746 85.973747"
             y="0"
             sodipodi:role="line"
             id="tspan54">LEAD WEB DESIGNER</tspan></text>
</g><g
         id="g58"
         transform="scale(10)"><text
           transform="matrix(0.99807,0,0,-1,350.123,547.349)"
           style="font-variant:normal;font-weight:bold;font-size:9px;font-family:OpenSans;-inkscape-font-specification:OpenSans-Bold;writing-mode:lr-tb;fill:#5a5758;fill-opacity:1;fill-rule:nonzero;stroke:none"
           id="text62"><tspan
             x="0 8.7013607 13.741361 19.788187 22.126205 27.337915 32.377914 38.112629 44.998974 47.33699 52.421989 57.633701"
             y="0"
             sodipodi:role="line"
             id="tspan60">WEB TECH LTD</tspan></text>
</g><g
         id="g64"
         transform="scale(10)"><text
           transform="matrix(0.9998,0,0,-1,350.263,526.751)"
           style="font-variant:normal;font-weight:normal;font-size:8.50133991px;font-family:Lato;-inkscape-font-specification:Lato-Regular;writing-mode:lr-tb;fill:#706d6e;fill-opacity:1;fill-rule:nonzero;stroke:none"
           id="text72"><tspan
             x="0 5.1008039 9.9210634 13.015552 20.921797 23.965277 28.785538 31.880026 34.05637 38.281532 45.269634 49.758343 52.801823 54.978165 61.966267 66.191437 69.872513 73.553596 77.778763 79.955101 86.416122 91.236382 95.980125 100.46883 102.64518 106.70032 111.49653 116.31679 119.41127 127.31752 130.36099 135.18126 138.27574 140.45209 145.21284 150.0331 152.03941 156.85968 159.96208 162.13841 166.62712 169.67461 171.85095 176.5947 178.63503 182.3161 184.32242 186.49876 193.49136 198.31161 200.31793 204.80664 208.48772 213.72455 218.21326"
             y="0"
             sodipodi:role="line"
             id="tspan66">Portor amet massa Done cportor dolor et nisl molese </tspan><tspan
             x="0 2.0403216 6.7795482 13.771679 15.948022 18.927618 23.416325 25.422642 27.462963 31.144043 35.203457 40.023716 44.767464 46.943806 48.950123 53.770382 56.864872 61.353577 65.706261 67.746582 72.511681 76.192764 80.932014 87.924118 90.100464 94.861214 99.681473 101.68779 106.50805 109.60254 111.77888 117.62331 120.7178 122.75812 127.50187 131.92256 133.96289 135.96921 137.97551 142.20068 144.207 146.38335 148.38966 153.20992 156.30441 160.79311 167.78571 169.96205 171.96837 176.78862 179.88312 184.37183 191.36441 193.54076 195.58109 200.34569 204.02676 208.76602 215.75862 217.76494"
             y="12.0012"
             sodipodi:role="line"
             id="tspan68">ium feliscon lore ipsum dolor ringilla. lorem lorem ipsum. </tspan><tspan
             x="0 4.8202596 6.8265762 8.8328924 12.888031 14.933065 17.980551 22.719776 27.480528 29.520849 34.264595 36.440941 40.929646 44.610729 47.658211 49.834557 54.595306 59.415565 61.421883 66.242142 69.336632 71.51297 76.749794 83.741905 88.230614 90.236931"
             y="24.002399"
             sodipodi:role="line"
             id="tspan70">ollcitudin est dolor me. </tspan></text>
</g><g
         id="g74"
         transform="scale(10)"><text
           transform="matrix(0.99608,0,0,-1,234.016,525.314)"
           style="font-variant:normal;font-weight:normal;font-size:8.97976971px;font-family:Lato;-inkscape-font-specification:Lato-Regular;writing-mode:lr-tb;fill:#656263;fill-opacity:1;fill-rule:nonzero;stroke:none"
           id="text78"><tspan
             x="0 5.656949 11.314388 16.971336 22.628286 25.376352 29.161213 31.908789 37.566227 43.223179 48.88015"
             y="0"
             sodipodi:role="line"
             id="tspan76">2013 - 2015</tspan></text>
</g><g
         id="g80"
         transform="scale(10)"><text
           transform="matrix(0.99807,0,0,-1,234.113,547.349)"
           style="font-variant:normal;font-weight:bold;font-size:9px;font-family:OpenSans;-inkscape-font-specification:OpenSans-Bold;writing-mode:lr-tb;fill:#393536;fill-opacity:1;fill-rule:nonzero;stroke:none"
           id="text84"><tspan
             x="0 8.7030001 13.743 19.791 22.131001 28.788774 33.828773 38.786087 41.765087 48.28204 55.599041 60.639042"
             y="0"
             sodipodi:role="line"
             id="tspan82">WEB DESIGNER</tspan></text>
</g><g
         id="g86"
         transform="scale(10)"><text
           transform="matrix(0.9998,0,0,-1,350.699,602.838)"
           style="font-variant:normal;font-weight:normal;font-size:8.50133991px;font-family:Lato;-inkscape-font-specification:Lato-Regular;writing-mode:lr-tb;fill:#706d6e;fill-opacity:1;fill-rule:nonzero;stroke:none"
           id="text94"><tspan
             x="0 5.1008039 9.9210634 13.015552 20.921797 23.965277 28.785538 31.880026 34.05637 38.281532 45.269634 49.758343 52.801823 54.978165 61.966267 66.191437 69.872513 73.553596 77.778763 79.955101 86.416122 91.236382 95.980125 100.46883 102.64518 106.70032 111.49653 116.31679 119.41127 127.31752 130.36099 135.18126 138.27574 140.45209 145.21284 150.0331 152.03941 156.85968 159.96208 162.13841 166.62712 169.67461 171.85095 176.5947 178.63503 182.3161 184.32242 186.49876 193.49136 198.31161 200.31793 204.80664 208.48772 213.72455 218.21326"
             y="0"
             sodipodi:role="line"
             id="tspan88">Portor amet massa Done cportor dolor et nisl molese </tspan><tspan
             x="0 2.0403216 6.7795482 13.771679 15.948022 18.927618 23.416325 25.422642 27.462963 31.144043 35.203457 40.023716 44.767464 46.943806 48.950123 53.770382 56.864872 61.353577 65.706261 67.746582 72.511681 76.192764 80.932014 87.924118 90.100464 94.861214 99.681473 101.68779 106.50805 109.60254 111.77888 117.62331 120.7178 122.75812 127.50187 131.92256 133.96289 135.96921 137.97551 142.20068 144.207 146.38335 148.38966 153.20992 156.30441 160.79311 167.78571 169.96205 171.96837 176.78862 179.88312 184.37183 191.36441 193.54076 195.58109 200.34569 204.02676 208.76602 215.75862 217.76494"
             y="12.0008"
             sodipodi:role="line"
             id="tspan90">ium feliscon lore ipsum dolor ringilla. lorem lorem ipsum. </tspan><tspan
             x="0 4.8202596 6.8265762 8.8328924 12.888031 14.933065 17.980551 22.719776 27.480528 29.520849 34.264595 36.440941 40.929646 44.610729 47.658211 49.834557 54.595306 59.415565 61.421883 66.242142 69.336632 71.51297 76.749794 83.741905 88.230614 90.236931 92.413269 98.878487 103.69875 108.4425 112.93121 115.10754 119.16694 123.93203 128.75229 131.84679 139.75703 142.80452 147.62477 150.71927 152.8956 157.65636 162.47661 164.48293 169.30319 172.39767 174.57402 178.8927 180.93303 184.02751 188.51622 193.25996"
             y="24.0016"
             sodipodi:role="line"
             id="tspan92">ollcitudin est dolor me. Done cportor dolor kiren </tspan></text>
</g><g
         id="g96"
         transform="scale(10)"><text
           transform="matrix(0.99807,0,0,-1,350.504,622.392)"
           style="font-variant:normal;font-weight:bold;font-size:9px;font-family:OpenSans;-inkscape-font-specification:OpenSans-Bold;writing-mode:lr-tb;fill:#5a5758;fill-opacity:1;fill-rule:nonzero;stroke:none"
           id="text100"><tspan
             x="0 4.9590001 12.123 17.059891 22.270891 24.610891 31.270891 36.31089 41.268204 44.247204 50.764156 58.081158 60.419201 65.376045 70.588272 77.390953 84.0532 87.032196 94.194931"
             y="0"
             sodipodi:role="line"
             id="tspan98">SOFT DESIGN STUDIOS</tspan></text>
</g><g
         id="g102"
         transform="scale(10)"><text
           transform="matrix(0.99493,0,0,-1,234.227,601.39)"
           style="font-variant:normal;font-weight:normal;font-size:8.99195004px;font-family:Lato;-inkscape-font-specification:Lato-Regular;writing-mode:lr-tb;fill:#656263;fill-opacity:1;fill-rule:nonzero;stroke:none"
           id="text106"><tspan
             x="0 5.6649494 11.329409 16.994358 22.659307 25.41057 29.20079 31.952053 37.617004 43.281952 48.946899 54.611336"
             y="0"
             sodipodi:role="line"
             id="tspan104">2015 - 2017 </tspan></text>
</g><g
         id="g108"
         transform="scale(10)"><text
           transform="matrix(0.99807,0,0,-1,234.016,622.391)"
           style="font-variant:normal;font-weight:bold;font-size:9px;font-family:OpenSans;-inkscape-font-specification:OpenSans-Bold;writing-mode:lr-tb;fill:#393536;fill-opacity:1;fill-rule:nonzero;stroke:none"
           id="text114"><tspan
             x="0 6.5169783 12.458617 18.667858 24.319859 31.206205 34.185204 39.919918 42.257935 48.920212 53.960209 58.917034 61.896034 68.41301 75.730011 80.770012"
             y="0"
             sodipodi:role="line"
             id="tspan110">GRAPHIC DESIGNER</tspan><tspan
             x="0 6.8039999 14.121 17.1 22.950001 27.99 33.93 38.889 41.868 47.078411 52.694412 55.03194 62.195183 67.134888 69.47242 74.557419 81.720657 87.661812 92.701805"
             y="411.09799"
             sodipodi:role="line"
             id="tspan112">UNIVERSITY OF LOREM</tspan></text>
</g><g
         id="g116"
         transform="scale(10)"><text
           transform="matrix(0.99807,0,0,-1,350.025,211.233)"
           style="font-variant:normal;font-weight:bold;font-size:9px;font-family:OpenSans;-inkscape-font-specification:OpenSans-Bold;writing-mode:lr-tb;fill:#5a5758;fill-opacity:1;fill-rule:nonzero;stroke:none"
           id="text120"><tspan
             x="0 6.0479999 11.088 16.820999 23.705999 28.746 33.831001 40.994999 46.937469 49.27747 56.441471 61.378605 63.716599 69.926598 75.867775 81.079506 83.417503 90.07975 93.058754 98.999924 104.04091 109.77562 114.98735 122.15057"
             y="0"
             sodipodi:role="line"
             id="tspan118">BECHELOR OF ART DIRECTOR</tspan></text>
</g><g
         id="g122"
         transform="scale(10)"><text
           transform="matrix(0.99608,0,0,-1,234.395,194.065)"
           style="font-variant:normal;font-weight:normal;font-size:8.97976971px;font-family:Lato;-inkscape-font-specification:Lato-Regular;writing-mode:lr-tb;fill:#656263;fill-opacity:1;fill-rule:nonzero;stroke:none"
           id="text126"><tspan
             x="0 5.656949 11.314388 16.971336 22.628286 25.376352 29.161213 31.908789 37.566227 43.223179 48.88015 54.537567"
             y="0"
             sodipodi:role="line"
             id="tspan124">2007 - 2009 </tspan></text>
</g><g
         id="g128"
         transform="scale(10)"><text
           transform="matrix(0.9998,0,0,-1,350.885,194.001)"
           style="font-variant:normal;font-weight:normal;font-size:8.50133991px;font-family:Lato;-inkscape-font-specification:Lato-Regular;writing-mode:lr-tb;fill:#706d6e;fill-opacity:1;fill-rule:nonzero;stroke:none"
           id="text136"><tspan
             x="0 5.1008039 9.9210634 13.015552 20.921797 23.965277 28.785538 31.880026 34.05637 38.281532 45.269634 49.758343 52.801823 54.978165 61.966267 66.191437 69.872513 73.553596 77.778763 79.955101 86.416122 91.236382 95.980125 100.46883 102.64518 106.70032 111.49613 116.31639 119.41088 127.31713 130.36061 135.18086 138.27536 140.45171 145.21245 150.03271 152.03903 156.85928 159.96169 162.13803 166.62674 169.67422 171.85056 176.59431 178.63463 182.3157 184.32202 186.49837 193.49097 198.31122 200.31754 204.80624 208.48734 213.72415 218.21286"
             y="0"
             sodipodi:role="line"
             id="tspan130">Portor amet massa Done cportor dolor et nisl molese </tspan><tspan
             x="0 2.0403216 6.7795482 13.771679 15.948022 18.927618 23.416325 25.422642 27.462963 31.144043 35.203457 40.023716 44.767464 46.943806 48.950123 53.770382 56.864872 61.353577 65.706261 67.746582 72.511681 76.192764 80.932014 87.924118 90.100464 94.861214 99.681473 101.68779 106.50805 109.60254 111.77888 117.62331 120.7178 122.75812 127.50187 131.92256 133.96289 135.96921 137.97551 142.20068 144.207 146.38335 148.38966 153.20992 156.30441 160.79311 167.78571 169.96205 171.96837 176.78862 179.88312 184.37183 191.36441 193.54076 195.58109 200.34569 204.02676 208.76602 215.75862 217.76494"
             y="12.0012"
             sodipodi:role="line"
             id="tspan132">ium feliscon lore ipsum dolor ringilla. lorem lorem ipsum. </tspan><tspan
             x="0 4.8202596 6.8265762 8.8328924 12.888031 14.931893 17.979378 22.718605 27.479355 29.519676 34.263424 36.439766 40.928474 44.609554 47.65704 49.833382 54.594131 59.414394 61.420708 66.240967 69.335457 71.511803 76.748627 83.74073 88.229439 90.235756 92.412102 98.877319 103.69758 108.44132 112.93003 115.10638 119.16576 123.93086 128.75111 131.84561 139.75586 142.80334 147.6236 150.71809"
             y="24.003201"
             sodipodi:role="line"
             id="tspan134">ollcitudin est dolor me. Done cportor </tspan></text>
</g><g
         id="g138"
         transform="scale(10)"><text
           transform="matrix(0.99807,0,0,-1,234.016,282.333)"
           style="font-variant:normal;font-weight:bold;font-size:9px;font-family:OpenSans;-inkscape-font-specification:OpenSans-Bold;writing-mode:lr-tb;fill:#393536;fill-opacity:1;fill-rule:nonzero;stroke:none"
           id="text142"><tspan
             x="0 6.8039999 14.121 17.1 22.950001 27.99 33.93 38.889 41.868 47.078411 52.694412 55.03194 62.195183 67.134888 69.47242 74.557419 81.720657 87.661812 92.701805"
             y="0"
             sodipodi:role="line"
             id="tspan140">UNIVERSITY OF LOREM</tspan></text>
</g><g
         id="g144"
         transform="scale(10)"><text
           transform="matrix(0.99807,0,0,-1,350.025,282.273)"
           style="font-variant:normal;font-weight:bold;font-size:9px;font-family:OpenSans;-inkscape-font-specification:OpenSans-Bold;writing-mode:lr-tb;fill:#5a5758;fill-opacity:1;fill-rule:nonzero;stroke:none"
           id="text148"><tspan
             x="0 6.0479999 11.088 16.820999 23.705999 28.746 33.831001 40.994999 46.937469 49.27747 56.441471 61.378605 63.716599 69.926598 75.867775 81.079506 83.417503 90.07975 93.058754 98.999924 104.04091 109.77562 114.98735 122.15057"
             y="0"
             sodipodi:role="line"
             id="tspan146">BECHELOR OF ART DIRECTOR</tspan></text>
</g><g
         id="g150"
         transform="scale(10)"><text
           transform="matrix(0.99608,0,0,-1,234.395,265.106)"
           style="font-variant:normal;font-weight:normal;font-size:8.97976971px;font-family:Lato;-inkscape-font-specification:Lato-Regular;writing-mode:lr-tb;fill:#656263;fill-opacity:1;fill-rule:nonzero;stroke:none"
           id="text154"><tspan
             x="0 5.656949 11.314388 16.971336 22.628286 25.376352 29.161213 31.908789 37.566227 43.223179 48.88015 54.537567"
             y="0"
             sodipodi:role="line"
             id="tspan152">2007 - 2009 </tspan></text>
</g><g
         id="g156"
         transform="scale(10)"><text
           transform="matrix(0.9998,0,0,-1,350.885,265.043)"
           style="font-variant:normal;font-weight:normal;font-size:8.50133991px;font-family:Lato;-inkscape-font-specification:Lato-Regular;writing-mode:lr-tb;fill:#706d6e;fill-opacity:1;fill-rule:nonzero;stroke:none"
           id="text164"><tspan
             x="0 5.1008039 9.9210634 13.015552 20.921797 23.965277 28.785538 31.880026 34.05637 38.281532 45.269634 49.758343 52.801823 54.978165 61.966267 66.191437 69.872513 73.553596 77.778763 79.955101 86.416122 91.236382 95.980125 100.46883 102.64518 106.70032 111.49613 116.31639 119.41088 127.31713 130.36061 135.18086 138.27536 140.45171 145.21245 150.03271 152.03903 156.85928 159.96169 162.13803 166.62674 169.67422 171.85056 176.59431 178.63463 182.3157 184.32202 186.49837 193.49097 198.31122 200.31754 204.80624 208.48734 213.72415 218.21286"
             y="0"
             sodipodi:role="line"
             id="tspan158">Portor amet massa Done cportor dolor et nisl molese </tspan><tspan
             x="0 2.0403216 6.7795482 13.771679 15.948022 18.927618 23.416325 25.422642 27.462963 31.144043 35.203457 40.023716 44.767464 46.943806 48.950123 53.770382 56.864872 61.353577 65.706261 67.746582 72.511681 76.192764 80.932014 87.924118 90.100464 94.861214 99.681473 101.68779 106.50805 109.60254 111.77888 117.62331 120.7178 122.75812 127.50187 131.92256 133.96289 135.96921 137.97551 142.20068 144.207 146.38335 148.38966 153.20992 156.30441 160.79311 167.78571 169.96205 171.96837 176.78862 179.88312 184.37183 191.36441 193.54076 195.58109 200.34569 204.02676 208.76602 215.75862 217.76494"
             y="12.0008"
             sodipodi:role="line"
             id="tspan160">ium feliscon lore ipsum dolor ringilla. lorem lorem ipsum. </tspan><tspan
             x="0 4.8202596 6.8265762 8.8328924 12.888031 14.931893 17.979378 22.718605 27.479355 29.519676 34.263424 36.439766 40.928474 44.609554 47.65704 49.833382 54.594131 59.414394 61.420708 66.240967 69.335457 71.511803 76.748627 83.74073 88.229439 90.235756 92.412102 98.877319 103.69758 108.44132 112.93003 115.10638 119.16576 123.93086 128.75111 131.84561 139.75586 142.80334 147.6236 150.71809"
             y="24.003099"
             sodipodi:role="line"
             id="tspan162">ollcitudin est dolor me. Done cportor </tspan></text>
</g><g
         id="g166"
         transform="scale(10)"><text
           transform="matrix(0.99807,0,0,-1,234.016,352.736)"
           style="font-variant:normal;font-weight:bold;font-size:9px;font-family:OpenSans;-inkscape-font-specification:OpenSans-Bold;writing-mode:lr-tb;fill:#393536;fill-opacity:1;fill-rule:nonzero;stroke:none"
           id="text170"><tspan
             x="0 6.8039999 14.121 17.1 22.950001 27.99 33.93 38.889 41.868 47.078411 52.694412 55.03194 62.195183 67.134399 69.47242 74.557419 81.720657 87.661812 92.701805"
             y="0"
             sodipodi:role="line"
             id="tspan168">UNIVERSITY OF LOREM</tspan></text>
</g><g
         id="g172"
         transform="scale(10)"><text
           transform="matrix(0.99807,0,0,-1,350.484,352.677)"
           style="font-variant:normal;font-weight:bold;font-size:9px;font-family:OpenSans;-inkscape-font-specification:OpenSans-Bold;writing-mode:lr-tb;fill:#5a5758;fill-opacity:1;fill-rule:nonzero;stroke:none"
           id="text176"><tspan
             x="0 5.7329998 10.773 16.716253 21.927254 24.906254 29.847254 32.826252 38.559254 44.771381 49.98238 55.022381 57.362381 64.526382 69.463959 71.801949 80.503334 85.543335 91.590164 93.928154 99.139893 105.08106 111.29106 114.27007 121.58707 124.56606"
             y="0"
             sodipodi:role="line"
             id="tspan174">CERTIFICATE OF WEB TRAINIG</tspan></text>
</g><g
         id="g178"
         transform="scale(10)"><text
           transform="matrix(0.99784,0,0,-1,234.397,335.225)"
           style="font-variant:normal;font-weight:normal;font-size:8.96226978px;font-family:Lato;-inkscape-font-specification:Lato-Regular;writing-mode:lr-tb;fill:#656263;fill-opacity:1;fill-rule:nonzero;stroke:none"
           id="text182"><tspan
             x="0 5.6459837 11.292457 16.93844 22.584423 25.326681 29.10437 31.846626 37.493099 43.139084 48.785091"
             y="0"
             sodipodi:role="line"
             id="tspan180">2008 - 2010</tspan></text>
</g><g
         id="g184"
         transform="scale(10)"><text
           transform="matrix(1,0,0,-0.99843246,350.864,336.659)"
           style="font-variant:normal;font-weight:normal;font-size:8.49809074px;font-family:Lato;-inkscape-font-specification:Lato-Regular;writing-mode:lr-tb;fill:#706d6e;fill-opacity:1;fill-rule:nonzero;stroke:none"
           id="text192"><tspan
             x="0 5.0988545 9.9172726 13.010577 20.921883 23.964199 28.782618 31.875923 34.051434 38.274986 45.260418 49.74741 52.789726 54.965237 61.950668 66.174217 69.853889 73.533562 77.757118 79.932625 86.391174 91.209595 95.971893 100.45889 102.63439 106.68798 111.44691 116.26534 119.35863 127.27383 130.31615 135.13455 138.22786 140.40338 145.16231 149.98073 151.98627 156.80469 159.90195 162.07747 166.56445 169.61131 171.78682 176.52876 178.5683 182.24797 184.25352 186.42903 193.41827 198.23669 200.24225 204.72923 208.40891 213.64374 218.13072"
             y="0"
             sodipodi:role="line"
             id="tspan186">Portor amet massa Done cportor dolor et nisl molese </tspan><tspan
             x="0 2.039542 6.7729788 13.75841 15.933921 18.908253 23.395245 25.400795 27.440336 31.12001 35.173599 39.992016 44.750015 46.925526 48.931076 53.749493 56.8428 61.329792 65.680817 67.72036 72.479286 76.158958 80.892395 87.877831 90.053337 94.812271 99.630692 101.63624 106.45466 109.54796 111.72347 117.57016 120.66347 122.703 127.4508 131.86981 133.90935 135.9149 137.92044 142.144 144.14955 146.32506 148.33061 153.14903 156.24232 160.72932 167.71797 169.89349 171.89903 176.71745 179.81076 184.29776 191.28699 193.46251 195.50204 200.26474 203.94441 208.6817 215.67094 217.6765"
             y="11.995804"
             sodipodi:role="line"
             id="tspan188">ium feliscon lore ipsum dolor ringilla. lorem lorem ipsum. </tspan><tspan
             x="0 4.8184175 6.823967 8.8295164 12.883106 14.922647 17.964964 22.6984 27.457333 29.496874 34.250797 36.426308 40.9133 44.592972 47.635288 49.810802 54.569733 59.388149 61.3937 66.21212 69.30542 71.480934 76.715759 83.701187 88.188179 90.193733"
             y="23.99271"
             sodipodi:role="line"
             id="tspan190">ollcitudin est dolor me. </tspan></text>
</g><g
         id="g194"
         transform="scale(10)"><text
           transform="matrix(0.998073,0,0,-1,234.016,663.45)"
           style="font-variant:normal;font-weight:bold;font-size:15px;font-family:OpenSans;-inkscape-font-specification:OpenSans-Bold;writing-mode:lr-tb;fill:#2e2a2b;fill-opacity:1;fill-rule:nonzero;stroke:none"
           id="text198"><tspan
             x="0 8.4013453 18.406345 27.825367 36.226322 46.128693 51.094307 59.495258 71.690262 81.248222 89.64917"
             y="0"
             sodipodi:role="line"
             id="tspan196">EXPERIENCES</tspan></text>
</g><path
         d="M 5751.31,6506.66 H 2340.16 v 10 h 3411.15 v -10"
         style="fill:#706d6e;fill-opacity:1;fill-rule:evenodd;stroke:none"
         id="path200"
         inkscape:connector-curvature="0" /><g
         id="g202"
         transform="scale(10)"><text
           transform="matrix(0.998073,0,0,-1,234.016,389.402)"
           style="font-variant:normal;font-weight:bold;font-size:15px;font-family:OpenSans;-inkscape-font-specification:OpenSans-Bold;writing-mode:lr-tb;fill:#2e2a2b;fill-opacity:1;fill-rule:nonzero;stroke:none"
           id="text206"><tspan
             x="0 8.4013453 19.501345 30.841345 40.396347 50.746346 59.431347 64.396347 76.336342"
             y="0"
             sodipodi:role="line"
             id="tspan204">EDUCATION</tspan></text>
</g><path
         d="M 5751.31,3764.01 H 2340.16 v 10 h 3411.15 v -10"
         style="fill:#706d6e;fill-opacity:1;fill-rule:evenodd;stroke:none"
         id="path208"
         inkscape:connector-curvature="0" /><g
         id="g210"
         transform="scale(10)"><text
           transform="matrix(0.9998,0,0,-1,458.601,81.4961)"
           style="font-variant:normal;font-weight:normal;font-size:8.50133991px;font-family:Lato;-inkscape-font-specification:Lato-Regular;writing-mode:lr-tb;fill:#706d6e;fill-opacity:1;fill-rule:nonzero;stroke:none"
           id="text218"><tspan
             x="0 8.7988873 13.287595 18.048346 20.224688 24.985437 29.474146 33.860836 38.349545 40.355862 45.176121 49.943954 54.432659 57.527149 59.456268 61.63261 68.098755 72.587463 76.268547 78.308037 82.728737 87.472481 89.648827 96.641418 100.8659 103.91338 108.40209 110.57844 114.94358 119.9641"
             y="0"
             sodipodi:role="line"
             id="tspan212">Web developer, Design mate LTD</tspan><tspan
             x="0 5.1008039 9.844552 14.664811 19.40856 23.897266 26.022602 28.198944 33.129723 38.060497 42.991276 47.922054 50.098396 55.029175 59.959949 64.890732 69.821503 71.997849 76.928627 81.859406 86.790176"
             y="12.0012"
             sodipodi:role="line"
             id="tspan214">Phone: +123 5556 4455</tspan><tspan
             x="0 4.905273 11.893374 16.11854 18.166531 20.172846 22.298182 24.474524 26.514309 31.003016 35.746765 39.427845 44.248104 48.991852 52.672932 59.665527 61.705017 64.753479 69.49659 76.608353 81.029045 88.020668 92.245834 94.286156 96.292473 98.298782 102.3572 107.17746"
             y="24.002399"
             sodipodi:role="line"
             id="tspan216">Email: jensonsmith@gmail.com</tspan></text>
</g><g
         id="g220"
         transform="scale(10)"><text
           transform="matrix(0.99807,0,0,-1,458.582,95.6391)"
           style="font-variant:normal;font-weight:bold;font-size:9px;font-family:OpenSans;-inkscape-font-specification:OpenSans-Bold;writing-mode:lr-tb;fill:#393536;fill-opacity:1;fill-rule:nonzero;stroke:none"
           id="text224"><tspan
             x="0 2.9790001 8.0190001 15.336 20.293093 25.333092 32.650093 34.990093 39.949093 48.431396 51.410397 56.62262"
             y="0"
             sodipodi:role="line"
             id="tspan222">JENSEN SMITH</tspan></text>
</g><g
         id="g226"
         transform="scale(10)"><text
           transform="matrix(0.9998,0,0,-1,234.016,81.452)"
           style="font-variant:normal;font-weight:normal;font-size:8.50133991px;font-family:Lato;-inkscape-font-specification:Lato-Regular;writing-mode:lr-tb;fill:#706d6e;fill-opacity:1;fill-rule:nonzero;stroke:none"
           id="text234"><tspan
             x="0 6.4651694 8.5054913 11.599979 16.088686 20.1481 23.195583 28.015842 31.110331 33.040134 35.216476 43.110142 47.335308 50.383282 53.477768 55.518089 59.751759 61.928101 68.920227 73.408936 78.169685 80.210007 84.435173 86.611519 88.617836 90.658157 97.650291 99.690613 102.73809 107.2268"
             y="0"
             sodipodi:role="line"
             id="tspan228">Director, Matrix media limited</tspan><tspan
             x="0 5.1008039 9.844552 14.664811 19.40856 23.897266 26.022602 28.198944 33.129723 38.060497 42.991276 47.922054 50.098396 55.029175 59.959949 64.890732 67.06707 71.997849 76.928627 81.859406"
             y="12.0008"
             sodipodi:role="line"
             id="tspan230">Phone: +555 123 5566</tspan><tspan
             x="0 4.905273 11.893374 16.11854 18.167702 20.174019 22.299353 24.475697 31.149248 33.193745 35.200062 37.206379 39.245747 43.470913 50.463531 54.782211 56.788528 61.276722 63.317047 70.309174 74.53434 79.278091 86.389389 90.810081 97.802704 102.02787 104.06819 106.07451 108.08026 112.13967 116.95993"
             y="24.000799"
             sodipodi:role="line"
             id="tspan232">Email: williamkleiman@gmail.com</tspan></text>
</g><g
         id="g236"
         transform="scale(10)"><text
           transform="matrix(0.99807,0,0,-1,234.718,95.598)"
           style="font-variant:normal;font-weight:bold;font-size:9px;font-family:OpenSans;-inkscape-font-specification:OpenSans-Bold;writing-mode:lr-tb;fill:#393536;fill-opacity:1;fill-rule:nonzero;stroke:none"
           id="text240"><tspan
             x="0 8.7030001 11.682 16.767 21.851999 24.830999 31.03804 39.524136 41.861664 47.83852 52.923519 57.96352 60.94252 69.428619 75.637856"
             y="0"
             sodipodi:role="line"
             id="tspan238">WILLIAM KLEIMAN</tspan></text>
</g><g
         id="g242"
         transform="scale(10)"><text
           transform="matrix(0.998073,0,0,-1,234.016,127.768)"
           style="font-variant:normal;font-weight:bold;font-size:15px;font-family:OpenSans;-inkscape-font-specification:OpenSans-Bold;writing-mode:lr-tb;fill:#2e2a2b;fill-opacity:1;fill-rule:nonzero;stroke:none"
           id="text246"><tspan
             x="0 9.9018831 18.302837 26.535 34.935955 44.838326 53.238327 65.433327 74.991287"
             y="0"
             sodipodi:role="line"
             id="tspan244">REFERENCE</tspan></text>
</g><path
         d="M 5751.31,1152.11 H 2340.16 v 10 h 3411.15 v -10"
         style="fill:#706d6e;fill-opacity:1;fill-rule:evenodd;stroke:none"
         id="path248"
         inkscape:connector-curvature="0" /><path
         d="m 1710.92,7684.61 c 0,-301.11 -244.1,-545.21 -545.21,-545.21 -301.112,0 -545.206,244.1 -545.206,545.21 0,301.12 244.094,545.21 545.206,545.21 301.11,0 545.21,-244.09 545.21,-545.21"
         style="fill:#2e2a2b;fill-opacity:1;fill-rule:evenodd;stroke:none"
         id="path250"
         inkscape:connector-curvature="0" /><path
         d="m 1679.1,7684.61 c 0,-283.53 -229.85,-513.38 -513.39,-513.38 -283.538,0 -513.386,229.85 -513.386,513.38 0,283.54 229.848,513.39 513.386,513.39 283.54,0 513.39,-229.85 513.39,-513.39"
         style="fill:#f57c14;fill-opacity:1;fill-rule:evenodd;stroke:none"
         id="path252"
         inkscape:connector-curvature="0" /><path
         d="m 2592.07,6496.66 h -251.91 v 30 h 251.91 v -30"
         style="fill:#f57c14;fill-opacity:1;fill-rule:evenodd;stroke:none"
         id="path254"
         inkscape:connector-curvature="0" /><g
         id="g256"
         transform="scale(10)"><text
           transform="matrix(0.9998,0,0,-1,42.8176,628.022)"
           style="font-variant:normal;font-weight:normal;font-size:8.50133991px;font-family:Lato;-inkscape-font-specification:Lato-Regular;writing-mode:lr-tb;fill:#706d6e;fill-opacity:1;fill-rule:nonzero;stroke:none"
           id="text278"><tspan
             x="0 7.893178 12.275891 18.89245 25.383009 29.608173 36.60078 41.088974 47.704556 50.08493 53.766014 60.382565 66.873116 71.36132 76.105072 79.199554 83.582275 90.197861 99.001373 103.22654 106.27403 109.95512 114.77538 119.51912 126.13568 128.142 132.96227 136.05675 140.54495 147.53755"
             y="0"
             sodipodi:role="line"
             id="tspan258">My Name Is Henry Watson lorem </tspan><tspan
             x="0 4.4881949 11.480802 16.245428 20.984655 24.665735 29.437195 31.477516 36.238266 38.624485 41.604568 44.699059 46.73938 51.483128 55.903824 57.944145 59.950462 61.956776 66.181946 68.567192 75.559799 80.380058 82.386375 86.874565 90.555649 95.792473 100.28118 102.6674 107.48766 110.58215 115.3259 119.55106 122.64555 127.13426 129.52049 134.28123 136.32156 140.54672 147.53934"
             y="12.002"
             sodipodi:role="line"
             id="tspan260">empus id fringilla molese ornare diam </tspan><tspan
             x="0 2.0403216 6.7840695 10.726268 15.546528 17.552845 22.041552 25.722631 30.959457 35.448166 39.391323 41.431644 46.196274 49.877354 54.616581 61.609188 65.551384 70.039589 75.276421 80.015648 87.008255 90.951408 94.045898 98.866158 102.54724 107.29099 111.23318 116.05344 118.05976 120.06608 122.1064 126.1658 128.20612 131.2536 135.99283 140.75359 142.7939 147.53766"
             y="24.0028"
             sodipodi:role="line"
             id="tspan262">in olese ipsum eum rosn ollicitudin </tspan><tspan
             x="0 4.4881949 8.1692753 11.21676 13.146564 20.878574 25.643202 30.463461 33.557949 41.468712 44.516205 49.336464 52.43095 60.16394 64.389107 71.381714 75.869919 78.917404 86.649422 91.393173 93.433495 96.480988 103.47359 107.69876 111.37984 115.06092 119.28609 127.01909 133.48425 138.30452 143.04826 147.53697"
             y="36.003601"
             sodipodi:role="line"
             id="tspan264">est, portor amet hitmassa Done </tspan><tspan
             x="0 4.0594034 8.8240242 13.644284 16.738771 24.649536 27.697025 32.517284 35.611774 39.475826 44.23658 49.056839 51.063156 55.883415 58.977901 62.842934 66.524017 71.267761 73.308083 76.355583 80.219635 84.980385 89.800644 91.806961 96.62722 99.72171 103.58674 107.90542 109.94574 113.04023 117.52843 122.27217 126.13623 128.14255 132.9628 136.0573 140.54601 147.5386"
             y="48.004398"
             sodipodi:role="line"
             id="tspan266">cportor dolor shit dolor kiren lorem </tspan><tspan
             x="0 4.7437477 6.7840695 10.46515 12.471466 14.324373 21.31698 26.137239 28.143557 32.632263 36.313343 41.550171 46.038876 47.891792 52.65641 55.7509 60.239609 65.476433 70.21566 77.208267 79.062157 83.550865 89.395782 92.490273 94.530594 99.274338 103.69504 105.70135 107.55427 109.59459 113.27567 115.12858 118.17608 122.91982 127.40802 129.26094 132.94202 137.68576 139.72609 142.77357 147.53819"
             y="60.006699"
             sodipodi:role="line"
             id="tspan268">nisl molese preum ering. is the shitp </tspan><tspan
             x="0 2.0063162 6.8265762 9.9210634 14.409771 21.402378 33.505394 35.545719 40.310345 44.369743 49.108971 56.101578 68.204597 71.29908 75.787277 81.024101 85.763329 92.755936 96.815338 98.855659 110.95868 115.18385 122.17645 126.66515 129.71265 141.81566 143.85599 147.53706"
             y="72.0075"
             sodipodi:role="line"
             id="tspan270">lorem ipcum reumci amet is </tspan><tspan
             x="0 3.0474906 7.7867174 12.547467 14.58779 19.331537 23.819731 27.500813 30.548302 32.554619 39.547226 44.367485 46.373802 50.861996 54.543076 64.509903 69.746727 74.485954 81.478561 91.445404 93.451721 98.27198 101.36647 105.85518 112.84779 122.81561 127.63586 129.64218 134.13089 137.81197 143.0488 147.53751"
             y="84.008301"
             sodipodi:role="line"
             id="tspan272">tudinest.moles um lorem olese </tspan><tspan
             x="0 4.7646208 7.8591084 12.347309 17.584135 22.323355 29.315962 33.653744 37.87891 42.643532 46.868698 50.711304 54.93647 59.275223 63.500389 65.506706 67.513023 71.850807 74.898285 79.642036 84.130234 88.468994 91.563477 96.383736 100.06482 104.55353 109.29727 111.30359 119.98013 122.96021 126.0547 128.09502 132.83876 137.25946 139.29979 141.30609 143.31241 147.53758"
             y="96.009102"
             sodipodi:role="line"
             id="tspan274">preum apaza all the rosen. fringilla </tspan><tspan
             x="0 2.0063162 6.8265762 9.9210634 14.409771 21.402378 23.578722 25.619043 30.383663 34.064743 38.80397 45.79657 47.972916"
             y="108.0099"
             sodipodi:role="line"
             id="tspan276">lorem ipsum .</tspan></text>
</g><g
         id="g280"
         transform="scale(10)"><text
           transform="matrix(0.998073,0,0,-1,76.8699,663.45)"
           style="font-variant:normal;font-weight:bold;font-size:15px;font-family:OpenSans;-inkscape-font-specification:OpenSans-Bold;writing-mode:lr-tb;fill:#2e2a2b;fill-opacity:1;fill-rule:nonzero;stroke:none"
           id="text284"><tspan
             x="0 10.349236 20.429235 32.369236 43.709236 52.394234 56.294235 70.439232"
             y="0"
             sodipodi:role="line"
             id="tspan282">ABOUT ME</tspan></text>
</g><path
         d="M 1899.63,6506.66 H 424.551 v 10 H 1899.63 v -10"
         style="fill:#706d6e;fill-opacity:1;fill-rule:evenodd;stroke:none"
         id="path286"
         inkscape:connector-curvature="0" /><g
         id="g288"
         transform="scale(10)"><text
           transform="matrix(0.98976,0,0,-1,42.8176,270.159)"
           style="font-variant:normal;font-weight:900;font-size:8.99999046px;font-family:Lato;-inkscape-font-specification:Lato-Heavy;writing-mode:lr-tb;fill:#231f20;fill-opacity:1;fill-rule:nonzero;stroke:none"
           id="text292"><tspan
             x="0 4.9589944 9.8686447 14.655949 19.795486 24.61948 26.968477"
             y="0"
             sodipodi:role="line"
             id="tspan290">Skype: </tspan></text>
<text
           transform="matrix(0.98976,0,0,-1,42.8176,258.141)"
           style="font-variant:normal;font-weight:normal;font-size:8.99999046px;font-family:Lato;-inkscape-font-specification:Lato-Regular;writing-mode:lr-tb;fill:#231f20;fill-opacity:1;fill-rule:nonzero;stroke:none"
           id="text296"><tspan
             x="0 5.0171971 8.9141932 13.666187 16.942184 21.964178 26.437721 33.839684"
             y="0"
             sodipodi:role="line"
             id="tspan294">username</tspan></text>
<text
           transform="matrix(0.98976,0,0,-1,43.29885,304.4738)"
           style="font-variant:normal;font-weight:900;font-size:8.99999046px;font-family:Lato;-inkscape-font-specification:Lato-Heavy;writing-mode:lr-tb;fill:#231f20;fill-opacity:1;fill-rule:nonzero;stroke:none"
           id="text300"><tspan
             x="0 9.512989 14.336984 19.480732 23.462921 25.802309 29.20038 34.024376 36.372639"
             y="0"
             sodipodi:role="line"
             id="tspan298">Website: </tspan></text>
<text
           transform="matrix(0.98976,0,0,-1,43.29885,292.4558)"
           style="font-variant:normal;font-weight:normal;font-size:8.99999046px;font-family:Lato;-inkscape-font-specification:Lato-Regular;writing-mode:lr-tb;fill:#231f20;fill-opacity:1;fill-rule:nonzero;stroke:none"
           id="text304"><tspan
             x="0 2.1599977 9.2249899 13.70203 16.928429 20.825426 25.928419 30.950415 33.073719 37.371635 42.474632"
             y="0"
             sodipodi:role="line"
             id="tspan302">jwatson.com</tspan></text>
<text
           transform="matrix(0.98976,0,0,-1,43.29885,338.789)"
           style="font-variant:normal;font-weight:900;font-size:8.99999046px;font-family:Lato;-inkscape-font-specification:Lato-Heavy;writing-mode:lr-tb;fill:#231f20;fill-opacity:1;fill-rule:nonzero;stroke:none"
           id="text308"><tspan
             x="0 5.1659942 12.757395 17.365391 19.704777 21.990774 24.339771"
             y="0"
             sodipodi:role="line"
             id="tspan306">Email: </tspan></text>
<text
           transform="matrix(0.98976,0,0,-1,43.29885,326.771)"
           style="font-variant:normal;font-weight:normal;font-size:8.99999046px;font-family:Lato;-inkscape-font-specification:Lato-Regular;writing-mode:lr-tb;fill:#231f20;fill-opacity:1;fill-rule:nonzero;stroke:none"
           id="text312"><tspan
             x="0 2.1599977 7.2629919 12.284986 17.30698 24.371973 28.848927 32.075325 35.972321 41.074368 46.096359 53.624619 58.305363 65.707321 70.180321 72.340317 74.464317 76.58831 80.885254 85.988251"
             y="0"
             sodipodi:role="line"
             id="tspan310">johnwatson@gmail.com</tspan></text>
<text
           transform="matrix(0.98976,0,0,-1,42.8176,373.105)"
           style="font-variant:normal;font-weight:900;font-size:8.99999046px;font-family:Lato;-inkscape-font-specification:Lato-Heavy;writing-mode:lr-tb;fill:#231f20;fill-opacity:1;fill-rule:nonzero;stroke:none"
           id="text316"><tspan
             x="0 6.9619226 12.158685 19.750092 24.574085 26.923084"
             y="0"
             sodipodi:role="line"
             id="tspan314">Home: </tspan></text>
<text
           transform="matrix(0.98976,0,0,-1,42.8176,361.087)"
           style="font-variant:normal;font-weight:normal;font-size:8.99999046px;font-family:Lato;-inkscape-font-specification:Lato-Regular;writing-mode:lr-tb;fill:#231f20;fill-opacity:1;fill-rule:nonzero;stroke:none"
           id="text320"><tspan
             x="0 5.2194672 10.439461 15.658931 20.878925 26.098389 31.31786 36.537853"
             y="0"
             sodipodi:role="line"
             id="tspan318">02800200</tspan></text>
<text
           transform="matrix(0.98976,0,0,-1,42.8176,407.4737)"
           style="font-variant:normal;font-weight:900;font-size:8.99999046px;font-family:Lato;-inkscape-font-specification:Lato-Heavy;writing-mode:lr-tb;fill:#231f20;fill-opacity:1;fill-rule:nonzero;stroke:none"
           id="text324"><tspan
             x="0 8.563283 13.761031 18.900026 21.240023 23.52602 28.350016 30.698284"
             y="0"
             sodipodi:role="line"
             id="tspan322">Mobile: </tspan></text>
<text
           transform="matrix(0.98976,0,0,-1,42.8176,395.3467)"
           style="font-variant:normal;font-weight:normal;font-size:8.99999046px;font-family:Lato;-inkscape-font-specification:Lato-Regular;writing-mode:lr-tb;fill:#231f20;fill-opacity:1;fill-rule:nonzero;stroke:none"
           id="text328"><tspan
             x="0 5.2194672 10.439461 15.658931 20.878925 26.098389 31.31786 36.537853"
             y="0"
             sodipodi:role="line"
             id="tspan326">02800200</tspan></text>
<text
           transform="matrix(0.99073,0,0,-1,43.0527,441.79)"
           style="font-variant:normal;font-weight:900;font-size:8.99999046px;font-family:Lato;-inkscape-font-specification:Lato-Heavy;writing-mode:lr-tb;fill:#231f20;fill-opacity:1;fill-rule:nonzero;stroke:none"
           id="text332"><tspan
             x="0 6.3179932 11.456445 16.59544 19.988436 24.812429 28.794659 32.776886"
             y="0"
             sodipodi:role="line"
             id="tspan330">Address:</tspan></text>
<text
           transform="matrix(0.99073,0,0,-1,43.0527,429.663)"
           style="font-variant:normal;font-weight:normal;font-size:8.99999046px;font-family:Lato;-inkscape-font-specification:Lato-Regular;writing-mode:lr-tb;fill:#231f20;fill-opacity:1;fill-rule:nonzero;stroke:none"
           id="text336"><tspan
             x="0 5.2199941 10.439274 13.665472 18.687466 20.992023 27.085018 31.729012 36.481007 41.503002 46.52021 51.272205 53.576202 58.459358 61.685558 64.961037 69.713028 74.465027 77.691223 79.995789 86.088783 91.105988 95.002983 98.229179 101.50518 105.9773 108.1013 110.26129 114.73429 117.03886 122.25813 127.47813 132.6974 137.9174"
             y="0"
             sodipodi:role="line"
             id="tspan334">12th Avenue Street Australia 40000</tspan></text>
</g><g
         id="g338"
         transform="scale(10)"><text
           transform="matrix(0.998073,0,0,-1,80.7922,476.145)"
           style="font-variant:normal;font-weight:bold;font-size:15px;font-family:OpenSans;-inkscape-font-specification:OpenSans-Bold;writing-mode:lr-tb;fill:#2e2a2b;fill-opacity:1;fill-rule:nonzero;stroke:none"
           id="text342"><tspan
             x="0 9.558259 21.496265 33.690655 42.377319 52.726364 62.284824"
             y="0"
             sodipodi:role="line"
             id="tspan340">CONTACT</tspan></text>
</g><path
         d="M 1077.14,606.742 V 553.5 h 829.73 v 53.242 h -829.73"
         style="fill:#deddde;fill-opacity:1;fill-rule:evenodd;stroke:none"
         id="path344"
         inkscape:connector-curvature="0" /><path
         d="M 1076.48,606.648 V 553.52 h 657.6 v 53.128 h -657.6"
         style="fill:#f57c14;fill-opacity:1;fill-rule:evenodd;stroke:none"
         id="path346"
         inkscape:connector-curvature="0" /><path
         d="m 1077.14,873.629 v -53.25 h 829.73 v 53.25 h -829.73"
         style="fill:#deddde;fill-opacity:1;fill-rule:evenodd;stroke:none"
         id="path348"
         inkscape:connector-curvature="0" /><path
         d="m 1076.45,874.32 v -53.211 h 657.64 v 53.211 h -657.64"
         style="fill:#f57c14;fill-opacity:1;fill-rule:evenodd;stroke:none"
         id="path350"
         inkscape:connector-curvature="0" /><path
         d="m 1077.14,1137.06 v -53.24 h 829.73 v 53.24 h -829.73"
         style="fill:#deddde;fill-opacity:1;fill-rule:evenodd;stroke:none"
         id="path352"
         inkscape:connector-curvature="0" /><path
         d="m 1076.46,1136.8 v -53.13 h 657.61 v 53.13 h -657.61"
         style="fill:#f57c14;fill-opacity:1;fill-rule:evenodd;stroke:none"
         id="path354"
         inkscape:connector-curvature="0" /><path
         d="m 1077.14,1401.09 v -53.25 h 829.73 v 53.25 h -829.73"
         style="fill:#deddde;fill-opacity:1;fill-rule:evenodd;stroke:none"
         id="path356"
         inkscape:connector-curvature="0" /><path
         d="m 1076.47,1402.03 v -53.16 h 657.59 v 53.16 h -657.59"
         style="fill:#f57c14;fill-opacity:1;fill-rule:evenodd;stroke:none"
         id="path358"
         inkscape:connector-curvature="0" /><path
         d="m 1077.14,1667.04 v -53.24 h 829.73 v 53.24 h -829.73"
         style="fill:#deddde;fill-opacity:1;fill-rule:evenodd;stroke:none"
         id="path360"
         inkscape:connector-curvature="0" /><path
         d="m 1076.45,1667.1 v -53.12 h 657.65 v 53.12 h -657.65"
         style="fill:#f57c14;fill-opacity:1;fill-rule:evenodd;stroke:none"
         id="path362"
         inkscape:connector-curvature="0" /><g
         id="g364"
         transform="scale(10)"><text
           transform="matrix(0.99719,0,0,-1,43,161.631)"
           style="font-variant:normal;font-weight:900;font-size:8.99999046px;font-family:Lato;-inkscape-font-specification:Lato-Heavy;writing-mode:lr-tb;fill:#393536;fill-opacity:1;fill-rule:nonzero;stroke:none"
           id="text376"><tspan
             x="0 9.5169678 14.715171 18.107512 23.246506 28.384968 31.777964 36.601959 40.583855"
             y="0"
             sodipodi:role="line"
             id="tspan366">Wordpress</tspan><tspan
             x="0 3.8879957 9.0852194 14.283416 21.874086 24.160782"
             y="25.9891"
             sodipodi:role="line"
             id="tspan368">Joomla</tspan><tspan
             x="0 5.6429939 10.745988 15.943212 19.340462 24.537691 28.520565 33.623558 38.820789"
             y="51.977001"
             sodipodi:role="line"
             id="tspan370">Photoshop</tspan><tspan
             x="0 2.7269969 5.0129943 7.2989917 12.397302 16.380175 19.777426 23.169767 27.778423 31.175673 36.372898"
             y="77.964897"
             sodipodi:role="line"
             id="tspan372">Illustrator</tspan><tspan
             x="0 6.9619441 12.397136 20.961237 25.659233 27.796099"
             y="103.9528"
             sodipodi:role="line"
             id="tspan374">HTML 5</tspan></text>
</g><g
         id="g378"
         transform="scale(10)"><text
           transform="matrix(0.998073,0,0,-1,92.0566,202.872)"
           style="font-variant:normal;font-weight:bold;font-size:15px;font-family:OpenSans;-inkscape-font-specification:OpenSans-Bold;writing-mode:lr-tb;fill:#2e2a2b;fill-opacity:1;fill-rule:nonzero;stroke:none"
           id="text382"><tspan
             x="0 8.2612267 18.221228 23.186228 31.662169 40.136021"
             y="0"
             sodipodi:role="line"
             id="tspan380">SKILLS</tspan></text>
</g><path
         d="M 1899.63,1913.26 H 424.551 v 10 H 1899.63 v -10"
         style="fill:#706d6e;fill-opacity:1;fill-rule:evenodd;stroke:none"
         id="path384"
         inkscape:connector-curvature="0" /><path
         d="m 2592.07,3754.01 h -251.91 v 30 h 251.91 v -30"
         style="fill:#f57c14;fill-opacity:1;fill-rule:evenodd;stroke:none"
         id="path386"
         inkscape:connector-curvature="0" /><path
         d="m 2592.07,1142.11 h -251.91 v 30 h 251.91 v -30"
         style="fill:#f57c14;fill-opacity:1;fill-rule:evenodd;stroke:none"
         id="path388"
         inkscape:connector-curvature="0" /><path
         d="M 0,206.801 V 0 H 6133.1 V 206.801 H 0"
         style="fill:#2e2a2b;fill-opacity:1;fill-rule:nonzero;stroke:none"
         id="path390"
         inkscape:connector-curvature="0" /><path
         d="m 1288.05,6496.66 h -251.92 v 30 h 251.92 v -30"
         style="fill:#f57c14;fill-opacity:1;fill-rule:evenodd;stroke:none"
         id="path392"
         inkscape:connector-curvature="0" /><path
         d="m 1288.05,1903.26 h -251.92 v 30 h 251.92 v -30"
         style="fill:#f57c14;fill-opacity:1;fill-rule:evenodd;stroke:none"
         id="path394"
         inkscape:connector-curvature="0" /><path
         d="M 1899.63,4649 H 424.551 v 10 H 1899.63 v -10"
         style="fill:#706d6e;fill-opacity:1;fill-rule:evenodd;stroke:none"
         id="path396"
         inkscape:connector-curvature="0" /><path
         d="m 1288.05,4639 h -251.92 v 30 h 251.92 v -30"
         style="fill:#f57c14;fill-opacity:1;fill-rule:evenodd;stroke:none"
         id="path398"
         inkscape:connector-curvature="0" /><text
         xml:space="preserve"
         style="font-style:normal;font-weight:bold;font-size:300.0000075px;line-height:1.25;font-family:sans-serif;letter-spacing:0px;word-spacing:0px;fill:#000000;fill-opacity:1;stroke:none;stroke-width:7.5;-inkscape-font-specification:'sans-serif, Bold';font-stretch:normal;font-variant:normal;text-anchor:start;text-align:start;writing-mode:lr;font-variant-ligatures:normal;font-variant-caps:normal;font-variant-numeric:normal;font-feature-settings:normal;"
         x="2338.9861"
         y="-7627.6553"
         id="text1207"
         transform="scale(1,-1)"><tspan
           sodipodi:role="line"
           id="tspan1205"
           x="2338.9861"
           y="-7627.6553"
           style="stroke-width:7.5;-inkscape-font-specification:'sans-serif, Bold';font-family:sans-serif;font-weight:bold;font-style:normal;font-stretch:normal;font-variant:normal;font-size:300.0000075px;text-anchor:start;text-align:start;writing-mode:lr;font-variant-ligatures:normal;font-variant-caps:normal;font-variant-numeric:normal;font-feature-settings:normal;">M. ZIA AKBARI</tspan></text>
</g><g
       inkscape:groupmode="layer"
       id="layer1"
       inkscape:label="icon" /></g></svg>